<svg width="95" height="60" viewBox="0 0 95 60" fill="none" xmlns="http://www.w3.org/2000/svg">
<g clip-path="url(#clip0_150_1764)">
<path d="M43.4159 11.5978C41.1588 11.5978 35.4303 12.0485 32.2439 14.1962C29.387 16.1218 27.8854 19.0804 25.9123 23.5054C24.4692 26.7418 24.2563 30.9188 24.2628 34.5648C24.2723 39.848 28.5517 43.2794 31.1204 45.5574C34.5161 48.569 40.5477 49.5949 49.7105 50.0331C54.3493 50.255 57.1127 47.2911 63.0694 40.9613C66.0844 37.7574 65.8272 34.8506 65.8178 29.3426C65.812 25.9186 64.0569 23.1933 62.702 20.6284C61.312 17.997 58.4033 16.1917 56.2249 15.0071C53.7193 13.6447 50.6626 12.8946 48.1085 12.1655C47.5231 12.0229 46.9654 11.9253 45.923 11.875C44.8806 11.8247 43.3704 11.8247 41.8145 11.8247" stroke="black" stroke-width="2" stroke-linecap="round"/>
<path d="M39.3298 22.5084C38.9495 22.5947 37.4669 23.6096 36.2274 25.4969C35.1187 27.1851 35.1931 29.2407 35.1733 32.6231C35.2759 33.685 35.5479 34.4378 35.9431 35.2411C36.1367 35.6094 36.3163 35.8979 36.8927 36.5364" stroke="black" stroke-width="2" stroke-linecap="round"/>
<path d="M55.1279 25.6257C55.2079 26.0371 55.6064 28.1105 55.859 30.2379C56.1261 32.4864 55.8186 35.6535 55.1746 36.8513C54.5318 38.0468 53.3065 38.7462 52.1815 39.6008C51.8041 39.8716 51.3002 40.2107 50.9018 40.4573C50.5034 40.7039 50.2258 40.8476 49.2012 41.2123" stroke="black" stroke-width="2" stroke-linecap="round"/>
<path d="M14.1301 30.3219C14.1066 30.3219 14.1972 30.756 15.1293 32.9145C17.2294 37.7775 19.7001 42.4014 20.619 45.0842C21.4286 47.4476 21.7385 50.1081 21.6503 52.1565C21.6341 52.5318 21.2021 52.584 20.8939 52.6272C20.2813 52.7131 19.6411 52.4318 19.0219 51.8774C17.6829 50.6787 17.1595 48.3767 16.1837 45.8119C15.1609 43.1234 14.2863 40.8859 13.6494 39.624C13.0807 38.4974 12.3118 36.8799 11.6741 35.2574C11.1379 33.8934 10.7503 32.2246 10.0579 30.004C8.94646 26.4398 7.74923 22.6821 6.509 19.2354C4.10676 12.5593 4.03008 11.1755 4.00044 10.5404C3.98689 10.25 4.2868 10.0522 4.89469 10.0407C8.81211 9.96664 12.2867 12.4258 13.5343 13.4779C14.5043 15.0337 15.3293 18.164 15.5632 25.3832C15.5936 27.6275 15.6229 30.0338 15.6531 32.5129" stroke="black" stroke-width="2" stroke-linecap="round"/>
<path d="M75.9587 44.2492C76.9845 37.2207 76.8829 33.6552 77.9062 31.8827L76.3482 30.6169C75.5692 29.9353 73.5874 27.8272 73.0375 27.3062C70.8324 25.2169 71.7346 23.101 71.7346 23.101C72.4753 20.4009 74.2474 16.695 76.1067 16.0217C76.8533 15.7513 77.8092 15.4711 78.2301 16.0292C78.6416 16.5749 78.7409 17.2782 78.6295 18.0139C78.3904 19.5939 77.7941 21.817 79.2035 22.8848C79.5123 23.1188 79.8666 23.1661 80.2591 22.8158C80.6516 22.4656 81.1151 21.7585 81.4613 20.849C82.7231 17.5339 83.5815 12.1016 85.6997 12.8122C86.246 12.9955 86.8931 13.5876 87.104 14.4478C87.3009 15.2508 87.4246 16.1484 87.0713 17.1162C86.2393 19.3956 83.9471 22.1353 84.3477 25.1327C84.4118 25.6123 84.8265 25.902 85.6045 24.6837C87.8923 21.1015 89.791 18.0146 90.3212 18.4046C90.8337 18.7816 91.4125 19.5093 91.3748 20.4094C91.2763 22.761 91.402 25.8769 88.922 28.5197C86.7949 30.7865 84.6023 30.7752 83.6371 32.0819C83.2379 32.6223 82.8606 33.4157 82.7705 34.4099C82.5751 36.5637 82.7264 38.285 82.4349 41.5263C82.2246 43.8657 80.6255 49.9885 78.3591 49.1529C78.0613 49.0431 77.8169 48.7681 77.695 48.3856C77.4376 47.5778 75.6772 46.1778 75.9587 44.2492Z" stroke="black" stroke-width="2" stroke-linecap="round"/>
</g>
<defs>
<clipPath id="clip0_150_1764">
<rect width="95" height="60" fill="white"/>
</clipPath>
</defs>
</svg>
